# xmcd
#
# Track frame offsets:
#	150
#	16792
#	24637
#	36110
#	46580
#	61830
#	71242
#	77920
#	90112
#	102417
#	127905
#	143187
#	171937
#
# Disc length: 2469 seconds
#
# Revision: 1
# Processed by: cddbd v1.5PL3 Copyright (c) Steve Scherf et al.
# Submitted via: CDex 1.50Beta5
#
DISCID=9e09a30d
DTITLE=倉持陽一 - 倉持の魂
DYEAR=1991
DGENRE=Pop
TTITLE0=あたたかいぼくの部屋
TTITLE1=彗星女
TTITLE2=ぼくの絵
TTITLE3=ねむたい
TTITLE4=行事
TTITLE5=月極駐車場
TTITLE6=ぼくは「本物」じゃない
TTITLE7=照明のおやじ
TTITLE8=ぐにゃぐにゃ
TTITLE9=じいさんとぼくのブルース
TTITLE10=明日会おうよベストな体調で
TTITLE11=いきあたりばったり
TTITLE12=10年先
EXTD=
EXTT0=
EXTT1=
EXTT2=
EXTT3=
EXTT4=
EXTT5=
EXTT6=
EXTT7=
EXTT8=
EXTT9=
EXTT10=
EXTT11=
EXTT12=
PLAYORDER=
